<svg xmlns="http://www.w3.org/2000/svg" xmlns:xlink="http://www.w3.org/1999/xlink" width="127" height="163" viewBox="0 0 127 163">
  <defs>
    <radialGradient id="radial-gradient" cx="0.5" cy="0.5" r="0.67" gradientUnits="objectBoundingBox">
      <stop offset="0" stop-color="#e6fff2"/>
      <stop offset="1" stop-color="#147593"/>
    </radialGradient>
  </defs>
  <g id="Group_98" data-name="Group 98" transform="translate(-3720 562)">
    <g id="Group_97" data-name="Group 97">
      <rect id="Rectangle_24" data-name="Rectangle 24" width="127" height="163" rx="12" transform="translate(3720 -562)" fill="url(#radial-gradient)"/>
    </g>
    <g id="Group_72" data-name="Group 72" transform="translate(1624 357.188)">
      <g id="Ellipse_4" data-name="Ellipse 4" transform="translate(2129 -904.188)" fill="#fff" stroke="#707070" stroke-width="1">
        <circle cx="21.5" cy="21.5" r="21.5" stroke="none"/>
        <circle cx="21.5" cy="21.5" r="21" fill="none"/>
      </g>
      <g id="Polygon_2" data-name="Polygon 2" transform="translate(2124 -861.188)" fill="#fff">
        <path d="M 53.3062858581543 80.5 L 0.6937147974967957 80.5 L 27 1.581144452095032 L 53.3062858581543 80.5 Z" stroke="none"/>
        <path d="M 27 3.162254333496094 L 1.387416839599609 80 L 52.61258316040039 80 L 27 3.162254333496094 M 27 0 L 54 81 L 0 81 L 27 0 Z" stroke="none" fill="#707070"/>
      </g>
      <g id="Group_71" data-name="Group 71" transform="translate(2125.498 -881.941)">
        <line id="Line_3" data-name="Line 3" x1="16.974" y1="32.95" transform="translate(0 14.386)" fill="none" stroke="#707070" stroke-width="1"/>
        <line id="Line_4" data-name="Line 4" x1="14.977" y1="3.994" transform="translate(29.955 42.344)" fill="none" stroke="#707070" stroke-width="1"/>
        <g id="Ellipse_5" data-name="Ellipse 5" transform="translate(6.502 -0.246)" fill="red" stroke="#707070" stroke-width="1">
          <circle cx="4.5" cy="4.5" r="4.5" stroke="none"/>
          <circle cx="4.5" cy="4.5" r="4" fill="none"/>
        </g>
        <g id="Ellipse_6" data-name="Ellipse 6" transform="translate(29.502 61.754)" fill="red" stroke="#707070" stroke-width="1">
          <circle cx="4.5" cy="4.5" r="4.5" stroke="none"/>
          <circle cx="4.5" cy="4.5" r="4" fill="none"/>
        </g>
        <line id="Line_5" data-name="Line 5" x1="8.487" y2="15.976" transform="translate(35.946 46.338)" fill="none" stroke="#707070" stroke-width="1"/>
        <line id="Line_6" data-name="Line 6" x1="6.989" y2="8.986" transform="translate(0 6.398)" fill="none" stroke="#707070" stroke-width="1"/>
      </g>
      <g id="Group_70" data-name="Group 70" transform="translate(2129.543 -887.082)">
        <g id="Ellipse_8" data-name="Ellipse 8" transform="translate(5.457 3.894)" fill="none" stroke="#707070" stroke-width="0.5" stroke-dasharray="2">
          <ellipse cx="10" cy="5" rx="10" ry="5" stroke="none"/>
          <ellipse cx="10" cy="5" rx="9.75" ry="4.75" fill="none"/>
        </g>
        <g id="Ellipse_9" data-name="Ellipse 9" transform="translate(26.457 3.894)" fill="none" stroke="#707070" stroke-width="0.5" stroke-dasharray="2">
          <ellipse cx="10" cy="5" rx="10" ry="5" stroke="none"/>
          <ellipse cx="10" cy="5" rx="9.75" ry="4.75" fill="none"/>
        </g>
        <g id="Group_69" data-name="Group 69" transform="translate(0 0)">
          <path id="Icon_metro-arrow-left" data-name="Icon metro-arrow-left" d="M1.38,3.053l-1.3-1.3a.261.261,0,0,1,0-.369l1.3-1.3a.261.261,0,0,1,.369.369L.89,1.3h2.5a.261.261,0,0,1,0,.522H.89l.859.859a.261.261,0,0,1-.369.369Z" transform="translate(5.488 2.291) rotate(-25)" fill="#707070"/>
          <path id="Icon_metro-arrow-left-2" data-name="Icon metro-arrow-left" d="M1.38,3.053l-1.3-1.3a.261.261,0,0,1,0-.369l1.3-1.3a.261.261,0,0,1,.369.369L.89,1.3h2.5a.261.261,0,0,1,0,.522H.89l.859.859a.261.261,0,0,1-.369.369Z" transform="matrix(-0.999, 0.035, -0.035, -0.999, 16.672, 18.598)" fill="#707070"/>
          <path id="Icon_metro-arrow-left-3" data-name="Icon metro-arrow-left" d="M1.38,3.053l-1.3-1.3a.261.261,0,0,1,0-.369l1.3-1.3a.261.261,0,0,1,.369.369L.89,1.3h2.5a.261.261,0,0,1,0,.522H.89l.859.859a.261.261,0,0,1-.369.369Z" transform="matrix(-0.899, 0.438, -0.438, -0.899, 23.695, 17.152)" fill="#707070"/>
          <path id="Icon_metro-arrow-left-4" data-name="Icon metro-arrow-left" d="M1.38,3.053l-1.3-1.3a.261.261,0,0,1,0-.369l1.3-1.3a.261.261,0,0,1,.369.369L.89,1.3h2.5a.261.261,0,0,1,0,.522H.89l.859.859a.261.261,0,0,1-.369.369Z" transform="translate(8.94 17.415) rotate(-161)" fill="#707070"/>
          <path id="Icon_metro-arrow-left-5" data-name="Icon metro-arrow-left" d="M1.38,3.053l-1.3-1.3a.261.261,0,0,1,0-.369l1.3-1.3a.261.261,0,0,1,.369.369L.89,1.3h2.5a.261.261,0,0,1,0,.522H.89l.859.859a.261.261,0,0,1-.369.369Z" transform="translate(0 6.084) rotate(-69)" fill="#707070"/>
          <path id="Icon_metro-arrow-left-6" data-name="Icon metro-arrow-left" d="M1.38,3.053l-1.3-1.3a.261.261,0,0,1,0-.369l1.3-1.3a.261.261,0,0,1,.369.369L.89,1.3h2.5a.261.261,0,0,1,0,.522H.89l.859.859a.261.261,0,0,1-.369.369Z" transform="matrix(-0.407, 0.914, -0.914, -0.407, 27.534, 12.006)" fill="#707070"/>
          <path id="Icon_metro-arrow-left-7" data-name="Icon metro-arrow-left" d="M1.38,3.053l-1.3-1.3a.261.261,0,0,1,0-.369l1.3-1.3a.261.261,0,0,1,.369.369L.89,1.3h2.5a.261.261,0,0,1,0,.522H.89l.859.859a.261.261,0,0,1-.369.369Z" transform="matrix(-0.407, 0.914, -0.914, -0.407, 29.531, 3.948)" fill="#707070"/>
          <path id="Icon_metro-arrow-left-8" data-name="Icon metro-arrow-left" d="M1.38,3.053l-1.3-1.3a.261.261,0,0,1,0-.369l1.3-1.3a.261.261,0,0,1,.369.369L.89,1.3h2.5a.261.261,0,0,1,0,.522H.89l.859.859a.261.261,0,0,1-.369.369Z" transform="translate(33.867 3.023) rotate(165)" fill="#707070"/>
        </g>
      </g>
    </g>
  </g>
</svg>
