<svg xmlns="http://www.w3.org/2000/svg" xmlns:xlink="http://www.w3.org/1999/xlink" width="376" height="235.5" viewBox="0 0 376 235.5">
  <defs>
    <radialGradient id="radial-gradient" cx="0.151" cy="0.5" r="0.317" gradientTransform="translate(0 -0.347) scale(1 1.693)" gradientUnits="objectBoundingBox">
      <stop offset="0" stop-color="#e6fff2"/>
      <stop offset="1" stop-color="#147593"/>
    </radialGradient>
    <filter id="Rectangle_35" x="0" y="5.5" width="376" height="230" filterUnits="userSpaceOnUse">
      <feOffset dx="4" dy="8" input="SourceAlpha"/>
      <feGaussianBlur stdDeviation="7.5" result="blur"/>
      <feFlood flood-color="#260606" flood-opacity="0.89"/>
      <feComposite operator="in" in2="blur"/>
      <feComposite in="SourceGraphic"/>
    </filter>
  </defs>
  <g id="Group_110" data-name="Group 110" transform="translate(-2915.5 1812)">
    <g id="Group_106" data-name="Group 106" transform="translate(424 -312)">
      <g id="Group_107" data-name="Group 107">
        <g id="Group_109" data-name="Group 109">
          <g transform="matrix(1, 0, 0, 1, 2491.5, -1500)" filter="url(#Rectangle_35)">
            <rect id="Rectangle_35-2" data-name="Rectangle 35" width="331" height="185" rx="12" transform="translate(18.5 20)" opacity="0.784" fill="url(#radial-gradient)"/>
          </g>
        </g>
      </g>
    </g>
    <g id="Group_67" data-name="Group 67" transform="translate(805 -844)">
      <g id="Ellipse_4" data-name="Ellipse 4" transform="translate(2162 -968)" fill="#fff" stroke="#707070" stroke-width="1">
        <circle cx="30" cy="30" r="30" stroke="none"/>
        <circle cx="30" cy="30" r="29.5" fill="none"/>
      </g>
      <g id="Polygon_2" data-name="Polygon 2" transform="translate(2155 -908)" fill="#fff">
        <path d="M 74.3072509765625 112.5 L 0.6927493214607239 112.5 L 37.5 1.58748459815979 L 74.3072509765625 112.5 Z" stroke="none"/>
        <path d="M 37.5 3.174949645996094 L 1.385490417480469 112 L 73.61450958251953 112 L 37.5 3.174949645996094 M 37.5 0 L 75 113 L 0 113 L 37.5 0 Z" stroke="none" fill="#707070"/>
      </g>
      <g id="Group_52" data-name="Group 52" transform="translate(2157.093 -947.073)">
        <line id="Line_3" data-name="Line 3" x1="23.718" y1="46.04" transform="translate(0 29.996)" fill="none" stroke="#707070" stroke-width="1"/>
        <line id="Line_4" data-name="Line 4" x1="20.927" y2="40.46" transform="translate(47.435 35.577)" fill="none" stroke="#707070" stroke-width="1"/>
        <g id="Ellipse_5" data-name="Ellipse 5" transform="translate(22.907 0.073)" fill="red" stroke="#707070" stroke-width="1">
          <ellipse cx="6.5" cy="6" rx="6.5" ry="6" stroke="none"/>
          <ellipse cx="6.5" cy="6" rx="6" ry="5.5" fill="none"/>
        </g>
        <g id="Ellipse_6" data-name="Ellipse 6" transform="translate(35.907 0.073)" fill="red" stroke="#707070" stroke-width="1">
          <circle cx="6" cy="6" r="6" stroke="none"/>
          <circle cx="6" cy="6" r="5.5" fill="none"/>
        </g>
        <line id="Line_5" data-name="Line 5" x2="22.323" y2="25.113" transform="translate(46.04 10.464)" fill="none" stroke="#707070" stroke-width="1"/>
        <line id="Line_6" data-name="Line 6" x1="23.718" y2="22.323" transform="translate(0 9.069)" fill="none" stroke="#707070" stroke-width="1"/>
      </g>
    </g>
  </g>
</svg>
