<svg xmlns="http://www.w3.org/2000/svg" xmlns:xlink="http://www.w3.org/1999/xlink" width="375" height="524" viewBox="0 0 375 524">
  <defs>
    <radialGradient id="radial-gradient" cx="0.5" cy="0.5" r="0.67" gradientUnits="objectBoundingBox">
      <stop offset="0" stop-color="#e6fff2"/>
      <stop offset="1" stop-color="#147593"/>
    </radialGradient>
  </defs>
  <g id="Group_51" data-name="Group 51" transform="translate(0 -227)">
    <rect id="Rectangle_31" data-name="Rectangle 31" width="375" height="500" rx="12" transform="translate(0 251)" fill="url(#radial-gradient)"/>
    <g id="Ellipse_1" data-name="Ellipse 1" transform="translate(110 227)" fill="#fff" stroke="#707070" stroke-linejoin="round" stroke-width="1">
      <ellipse cx="78" cy="77.5" rx="78" ry="77.5" stroke="none"/>
      <ellipse cx="78" cy="77.5" rx="77.5" ry="77" fill="none"/>
    </g>
    <g id="Polygon_2" data-name="Polygon 2" transform="translate(78 382)" fill="#fff">
      <path d="M 219.3056030273438 328.5 L 0.6943894624710083 328.5 L 110 1.576855659484863 L 219.3056030273438 328.5 Z" stroke="none"/>
      <path d="M 110 3.153594970703125 L 1.38873291015625 328 L 218.6112670898438 328 L 110 3.153594970703125 M 110 0 L 220 329 L 0 329 L 110 0 Z" stroke="none" fill="#707070"/>
    </g>
    <path id="Path_1" data-name="Path 1" d="M1109.553,475.969l61.894,52.505-61.894,42.736" transform="translate(-891.098)" fill="none" stroke="#707070" stroke-width="1"/>
    <path id="Path_2" data-name="Path 2" d="M1170.349,475.969l-60.8,68.54,33.452,40.7" transform="translate(-1008.951 -14)" fill="none" stroke="#707070" stroke-width="1"/>
  </g>
</svg>
