<svg id="Layer_1" enable-background="new 0 0 512 512" height="24" viewBox="0 0 512 512" width="24" xmlns="http://www.w3.org/2000/svg" fill=""><g><path d="m359.049 351.575-9.99 9.968c-5.86 5.849-15.34 5.849-21.2 0l-9.99-9.968c-2.98-2.99-6.91-4.479-10.84-4.479-3.92 0-7.85 1.49-10.84 4.479-2.89 2.879-4.48 6.719-4.48 10.798 0 4.069 1.59 7.909 4.48 10.788l42.27 42.213 42.27-42.213c2.89-2.88 4.48-6.719 4.48-10.788 0-4.079-1.59-7.919-4.48-10.798-5.98-5.969-15.7-5.969-21.68 0z"/><path d="m338.729 248.271c-34.37 0-65.54 8.239-92.67 24.486-26.3 15.738-48.12 38.764-65.14 68.659v-126.79c0-18.557 15.09-33.655 33.65-33.655 27.08 0 49.12-22.027 49.12-49.112v-24.876h-101.01c-8.29 0-15-6.719-15-14.998v-24.865c0-8.279 6.71-14.998 15-14.998 8.28 0 15 6.719 15 14.998v9.868h86.01v-27.886c0-27.076-22.04-49.102-49.12-49.102h-82.77c-12.83 0-25.7 4.909-36.22 13.818-10.51 8.909-17.46 20.767-19.58 33.405l-75.332 414.855c-.01.03-.02.07-.02.1-2.16 12.948 1.14 25.746 9.07 35.104 7.93 9.359 20.01 14.718 33.13 14.718h420.043c27.08 0 49.11-22.027 49.11-49.102v-41.384c0-95.525-77.73-173.243-173.271-173.243zm63.2 146.117-52.87 52.792c-2.93 2.92-6.76 4.379-10.6 4.379-3.83 0-7.67-1.46-10.6-4.379l-52.87-52.792c-8.56-8.549-13.28-19.927-13.28-32.015 0-12.098 4.72-23.476 13.28-32.025 17.47-17.437 45.76-17.637 63.47-.6 17.71-17.037 46.01-16.837 63.47.6 8.57 8.549 13.28 19.927 13.28 32.025.001 12.088-4.71 23.467-13.28 32.015z"/></g></svg>