<?xml version="1.0" encoding="iso-8859-1"?>
<!-- Generator: Adobe Illustrator 19.0.0, SVG Export Plug-In . SVG Version: 6.00 Build 0)  -->
<svg version="1.1" id="Layer_1" xmlns="http://www.w3.org/2000/svg" xmlns:xlink="http://www.w3.org/1999/xlink" x="0px" y="0px"
	 viewBox="0 0 512 512" style="enable-background:new 0 0 512 512;" xml:space="preserve" height="24" width="24">
<g>
	<g>
		<path d="M255.992,108.655c-34.307,0-62.218,27.911-62.218,62.217c0.001,34.306,27.912,62.218,62.218,62.218
			c34.307,0,62.218-27.911,62.218-62.218C318.21,136.566,290.299,108.655,255.992,108.655z"/>
	</g>
</g>
<g>
	<g>
		<path d="M415.923,443.942c-5.892-23.744-29.247-38.683-53.169-34.004c-70.313,13.747-142.082,13.733-213.315-0.039
			c-24.125-4.662-47.583,10.317-53.397,34.112l-0.029,0.118c-2.929,12.113-0.755,25.069,5.97,35.566
			c6.812,10.631,17.374,17.807,29.745,20.207c41.397,8.028,83.393,12.1,124.819,12.1c41.321,0,82.982-4.052,123.822-12.043
			c12.372-2.421,22.924-9.623,29.713-20.28C416.807,469.118,418.936,456.093,415.923,443.942z"/>
	</g>
</g>
<g>
	<g>
		<path d="M318.47,66.201c-20.857-16.322-40.556-31.739-49.82-46.304L255.992,0l-12.658,19.897
			c-9.265,14.565-28.965,29.982-49.822,46.305c-40.664,31.824-86.755,67.896-86.755,120.419c0,34.953,17.622,61.902,49.622,75.887
			c11.829,5.169,23.604,7.698,32.371,8.938l6.35,115.177c20.503,2.395,41.053,3.611,61.443,3.611
			c20.105,0,40.283-1.183,60.335-3.512l6.355-115.276c8.767-1.24,20.543-3.77,32.371-8.938
			c31.999-13.984,49.621-40.934,49.621-75.887C405.226,134.097,359.136,98.026,318.47,66.201z M344.302,234.697
			c-17.214,7.736-35.199,7.937-35.379,7.938h-52.932h-52.979c-0.172,0-17.653-0.207-34.62-7.622
			c-21.286-9.302-31.633-25.131-31.633-48.393c0.002-37.905,38.253-67.84,75.245-96.791c16.308-12.763,31.971-25.021,43.988-37.835
			c12.018,12.815,27.681,25.072,43.987,37.834c36.992,28.951,75.243,58.887,75.243,96.792
			C375.222,209.619,365.107,225.346,344.302,234.697z"/>
	</g>
</g>
<g>
</g>
<g>
</g>
<g>
</g>
<g>
</g>
<g>
</g>
<g>
</g>
<g>
</g>
<g>
</g>
<g>
</g>
<g>
</g>
<g>
</g>
<g>
</g>
<g>
</g>
<g>
</g>
<g>
</g>
</svg>
