<svg id="Layer_1" enable-background="new 0 0 512 512" height="25" viewBox="0 0 512 512" width="25" xmlns="http://www.w3.org/2000/svg" fill="#fff">
<g><path d="m335.474 327.762c-17.716-17.039-46.013-16.84-63.48.599-8.567 8.553-13.284 19.927-13.284 32.025s4.718 23.472 13.284 32.025l52.879 52.796c2.929 2.924 6.765 4.386 10.601 4.386s7.672-1.462 10.601-4.386l52.879-52.796c8.567-8.553 13.284-19.927 13.284-32.025s-4.718-23.472-13.284-32.025c-17.467-17.441-45.764-17.641-63.48-.599zm42.279 43.421-42.278 42.212-42.278-42.212c-2.89-2.885-4.481-6.72-4.481-10.797s1.592-7.912 4.481-10.797c2.99-2.985 6.917-4.478 10.844-4.478s7.854 1.492 10.844 4.478l9.99 9.974c5.857 5.848 15.344 5.848 21.202 0l9.99-9.974c5.979-5.97 15.708-5.971 21.688 0 2.89 2.885 4.481 6.72 4.481 10.797s-1.594 7.911-4.483 10.797z"/><path d="m336.305 241c-34.734 0-66.296 8.353-93.81 24.827-19.888 11.909-37.226 27.879-51.877 47.742v-97.733c0-13.877 11.29-25.168 25.168-25.168 30.425 0 55.176-24.748 55.176-55.168v-80.332c.001-30.42-24.751-55.168-55.176-55.168h-80.344c-14.235 0-28.443 5.396-40.01 15.195-11.533 9.771-19.182 22.85-21.545 36.839l-73.12 402.662c-.013.07-.025.141-.037.211-2.461 14.745 1.361 29.379 10.487 40.153 9.123 10.766 22.929 16.94 37.88 16.94h407.727c30.424 0 55.176-24.748 55.176-55.168v-40.168c0-96.861-78.816-175.664-175.695-175.664zm145.69 215.832c0 13.877-11.292 25.168-25.172 25.168h-407.726c-6.114 0-11.576-2.308-14.985-6.33-3.395-4.008-4.778-9.737-3.801-15.732l73.115-402.636c.013-.071.025-.143.037-.213 1.174-7.04 5.21-13.79 11.366-19.005 6.153-5.213 13.474-8.084 20.613-8.084h80.344c13.88 0 25.172 11.291 25.172 25.168v26.792h-63.294v-9.87c0-8.284-6.717-15-15.002-15s-15.002 6.716-15.002 15v24.87c0 8.284 6.717 15 15.002 15h78.297v23.54c0 13.878-11.292 25.168-25.172 25.168-30.422 0-55.173 24.748-55.173 55.168v155.864c0 7.176 5.083 13.347 12.127 14.722 7.045 1.373 14.076-2.431 16.776-9.08 35.687-87.893 99.522-106.342 146.788-106.342 80.334 0 145.69 65.345 145.69 145.664z"/></g></svg>